<svg width="96" height="96" viewBox="0 0 96 96" fill="none" xmlns="http://www.w3.org/2000/svg">
<path d="M90 78H87V27C87 26.2044 86.6839 25.4413 86.1213 24.8787C85.5587 24.3161 84.7956 24 84 24H69V15C69 14.2044 68.6839 13.4413 68.1213 12.8787C67.5587 12.3161 66.7957 12 66 12H30C29.2044 12 28.4413 12.3161 27.8787 12.8787C27.3161 13.4413 27 14.2044 27 15V36H12C11.2044 36 10.4413 36.3161 9.87868 36.8787C9.31607 37.4413 9 38.2044 9 39V78H6C5.20435 78 4.44129 78.3161 3.87868 78.8787C3.31607 79.4413 3 80.2044 3 81C3 81.7956 3.31607 82.5587 3.87868 83.1213C4.44129 83.6839 5.20435 84 6 84H90C90.7956 84 91.5587 83.6839 92.1213 83.1213C92.6839 82.5587 93 81.7956 93 81C93 80.2044 92.6839 79.4413 92.1213 78.8787C91.5587 78.3161 90.7956 78 90 78ZM15 42H30C30.7956 42 31.5587 41.6839 32.1213 41.1213C32.6839 40.5587 33 39.7956 33 39V18H63V27C63 27.7956 63.3161 28.5587 63.8787 29.1213C64.4413 29.6839 65.2043 30 66 30H81V78H57V63C57 62.2043 56.6839 61.4413 56.1213 60.8787C55.5587 60.3161 54.7957 60 54 60H42C41.2043 60 40.4413 60.3161 39.8787 60.8787C39.3161 61.4413 39 62.2043 39 63V78H15V42ZM51 78H45V66H51V78ZM42 27C42 26.2044 42.3161 25.4413 42.8787 24.8787C43.4413 24.3161 44.2043 24 45 24H51C51.7957 24 52.5587 24.3161 53.1213 24.8787C53.6839 25.4413 54 26.2044 54 27C54 27.7956 53.6839 28.5587 53.1213 29.1213C52.5587 29.6839 51.7957 30 51 30H45C44.2043 30 43.4413 29.6839 42.8787 29.1213C42.3161 28.5587 42 27.7956 42 27ZM42 39C42 38.2044 42.3161 37.4413 42.8787 36.8787C43.4413 36.3161 44.2043 36 45 36H51C51.7957 36 52.5587 36.3161 53.1213 36.8787C53.6839 37.4413 54 38.2044 54 39C54 39.7956 53.6839 40.5587 53.1213 41.1213C52.5587 41.6839 51.7957 42 51 42H45C44.2043 42 43.4413 41.6839 42.8787 41.1213C42.3161 40.5587 42 39.7956 42 39ZM63 39C63 38.2044 63.3161 37.4413 63.8787 36.8787C64.4413 36.3161 65.2043 36 66 36H72C72.7956 36 73.5587 36.3161 74.1213 36.8787C74.6839 37.4413 75 38.2044 75 39C75 39.7956 74.6839 40.5587 74.1213 41.1213C73.5587 41.6839 72.7956 42 72 42H66C65.2043 42 64.4413 41.6839 63.8787 41.1213C63.3161 40.5587 63 39.7956 63 39ZM33 51C33 51.7957 32.6839 52.5587 32.1213 53.1213C31.5587 53.6839 30.7956 54 30 54H24C23.2044 54 22.4413 53.6839 21.8787 53.1213C21.3161 52.5587 21 51.7957 21 51C21 50.2043 21.3161 49.4413 21.8787 48.8787C22.4413 48.3161 23.2044 48 24 48H30C30.7956 48 31.5587 48.3161 32.1213 48.8787C32.6839 49.4413 33 50.2043 33 51ZM33 63C33 63.7957 32.6839 64.5587 32.1213 65.1213C31.5587 65.6839 30.7956 66 30 66H24C23.2044 66 22.4413 65.6839 21.8787 65.1213C21.3161 64.5587 21 63.7957 21 63C21 62.2043 21.3161 61.4413 21.8787 60.8787C22.4413 60.3161 23.2044 60 24 60H30C30.7956 60 31.5587 60.3161 32.1213 60.8787C32.6839 61.4413 33 62.2043 33 63ZM42 51C42 50.2043 42.3161 49.4413 42.8787 48.8787C43.4413 48.3161 44.2043 48 45 48H51C51.7957 48 52.5587 48.3161 53.1213 48.8787C53.6839 49.4413 54 50.2043 54 51C54 51.7957 53.6839 52.5587 53.1213 53.1213C52.5587 53.6839 51.7957 54 51 54H45C44.2043 54 43.4413 53.6839 42.8787 53.1213C42.3161 52.5587 42 51.7957 42 51ZM63 51C63 50.2043 63.3161 49.4413 63.8787 48.8787C64.4413 48.3161 65.2043 48 66 48H72C72.7956 48 73.5587 48.3161 74.1213 48.8787C74.6839 49.4413 75 50.2043 75 51C75 51.7957 74.6839 52.5587 74.1213 53.1213C73.5587 53.6839 72.7956 54 72 54H66C65.2043 54 64.4413 53.6839 63.8787 53.1213C63.3161 52.5587 63 51.7957 63 51ZM63 63C63 62.2043 63.3161 61.4413 63.8787 60.8787C64.4413 60.3161 65.2043 60 66 60H72C72.7956 60 73.5587 60.3161 74.1213 60.8787C74.6839 61.4413 75 62.2043 75 63C75 63.7957 74.6839 64.5587 74.1213 65.1213C73.5587 65.6839 72.7956 66 72 66H66C65.2043 66 64.4413 65.6839 63.8787 65.1213C63.3161 64.5587 63 63.7957 63 63Z" fill="#206BA6"/>
</svg>
