<svg width="40" height="40" viewBox="0 0 40 40" fill="none" xmlns="http://www.w3.org/2000/svg">
<path d="M25.8844 31.6156C26.0005 31.7317 26.0926 31.8696 26.1555 32.0213C26.2183 32.1731 26.2507 32.3357 26.2507 32.4999C26.2507 32.6642 26.2183 32.8268 26.1555 32.9786C26.0926 33.1303 26.0005 33.2682 25.8844 33.3843C25.7682 33.5005 25.6304 33.5926 25.4786 33.6554C25.3269 33.7183 25.1642 33.7506 25 33.7506C24.8358 33.7506 24.6731 33.7183 24.5214 33.6554C24.3696 33.5926 24.2318 33.5005 24.1156 33.3843L11.6156 20.8843C11.4994 20.7682 11.4072 20.6304 11.3443 20.4786C11.2814 20.3269 11.249 20.1642 11.249 19.9999C11.249 19.8357 11.2814 19.673 11.3443 19.5213C11.4072 19.3695 11.4994 19.2317 11.6156 19.1156L24.1156 6.61556C24.3502 6.38101 24.6683 6.24924 25 6.24924C25.3317 6.24924 25.6498 6.38101 25.8844 6.61556C26.1189 6.85011 26.2507 7.16823 26.2507 7.49994C26.2507 7.83164 26.1189 8.14976 25.8844 8.38431L14.2672 19.9999L25.8844 31.6156Z" fill="black"/>
</svg>
