<svg width="96" height="96" viewBox="0 0 96 96" fill="none" xmlns="http://www.w3.org/2000/svg">
<path d="M48 51C48 51.7957 47.6839 52.5587 47.1213 53.1213C46.5587 53.6839 45.7956 54 45 54H27C26.2043 54 25.4413 53.6839 24.8787 53.1213C24.3161 52.5587 24 51.7957 24 51C24 50.2043 24.3161 49.4413 24.8787 48.8787C25.4413 48.3161 26.2043 48 27 48H45C45.7956 48 46.5587 48.3161 47.1213 48.8787C47.6839 49.4413 48 50.2043 48 51ZM45 36H27C26.2043 36 25.4413 36.3161 24.8787 36.8787C24.3161 37.4413 24 38.2044 24 39C24 39.7956 24.3161 40.5587 24.8787 41.1213C25.4413 41.6839 26.2043 42 27 42H45C45.7956 42 46.5587 41.6839 47.1213 41.1213C47.6839 40.5587 48 39.7956 48 39C48 38.2044 47.6839 37.4413 47.1213 36.8787C46.5587 36.3161 45.7956 36 45 36ZM87 60.5513V84C87.0048 84.5289 86.8696 85.0496 86.6082 85.5095C86.3469 85.9693 85.9686 86.3518 85.5117 86.6183C85.0549 86.8848 84.5357 87.0258 84.0068 87.027C83.4779 87.0282 82.958 86.8895 82.5 86.625L73.5 81.4725L64.5 86.625C64.042 86.8895 63.5221 87.0282 62.9932 87.027C62.4643 87.0258 61.9451 86.8848 61.4883 86.6183C61.0314 86.3518 60.6531 85.9693 60.3918 85.5095C60.1304 85.0496 59.9952 84.5289 60 84V75H15C13.4087 75 11.8826 74.3679 10.7574 73.2426C9.63214 72.1174 9 70.5913 9 69V21C9 19.4087 9.63214 17.8826 10.7574 16.7574C11.8826 15.6321 13.4087 15 15 15H81C82.5913 15 84.1174 15.6321 85.2426 16.7574C86.3679 17.8826 87 19.4087 87 21V32.4487C88.8964 34.2648 90.4056 36.446 91.4366 38.8608C92.4676 41.2757 92.9992 43.8743 92.9992 46.5C92.9992 49.1257 92.4676 51.7243 91.4366 54.1392C90.4056 56.554 88.8964 58.7352 87 60.5513ZM60 69V60.5513C56.7308 57.3984 54.6647 53.2032 54.1582 48.6897C53.6517 44.1762 54.7367 39.6274 57.2258 35.8284C59.7149 32.0293 63.4521 29.2183 67.7924 27.8804C72.1328 26.5425 76.804 26.7617 81 28.5V21H15V69H60ZM81 64.5C78.6241 65.4926 76.0749 66.0038 73.5 66.0038C70.9251 66.0038 68.3759 65.4926 66 64.5V78.8325L72 75.3975C72.4534 75.1384 72.9665 75.002 73.4887 75.002C74.011 75.002 74.5241 75.1384 74.9775 75.3975L80.9775 78.8325L81 64.5ZM87 46.5C87 43.83 86.2082 41.2199 84.7248 38.9998C83.2414 36.7797 81.133 35.0494 78.6662 34.0276C76.1994 33.0058 73.485 32.7385 70.8663 33.2594C68.2475 33.7803 65.8421 35.0661 63.9541 36.9541C62.066 38.8421 60.7803 41.2475 60.2594 43.8663C59.7385 46.485 60.0058 49.1994 61.0276 51.6662C62.0494 54.133 63.7797 56.2414 65.9998 57.7248C68.2199 59.2082 70.8299 60 73.5 60C75.2728 60 77.0283 59.6508 78.6662 58.9724C80.3041 58.2939 81.7923 57.2995 83.0459 56.0459C84.2995 54.7924 85.2939 53.3041 85.9724 51.6662C86.6508 50.0283 87 48.2728 87 46.5Z" fill="#206BA6"/>
</svg>
