<svg width="96" height="96" viewBox="0 0 96 96" fill="none" xmlns="http://www.w3.org/2000/svg">
<path d="M84.6975 38.5575C83.2838 37.08 81.8213 35.5575 81.27 34.2188C80.76 32.9925 80.73 30.96 80.7 28.9912C80.6437 25.3312 80.5837 21.1838 77.7 18.3C74.8162 15.4162 70.6688 15.3562 67.0088 15.3C65.04 15.27 63.0075 15.24 61.7812 14.73C60.4463 14.1787 58.92 12.7162 57.4425 11.3025C54.855 8.81625 51.915 6 48 6C44.085 6 41.1488 8.81625 38.5575 11.3025C37.08 12.7162 35.5575 14.1787 34.2188 14.73C33 15.24 30.96 15.27 28.9912 15.3C25.3312 15.3562 21.1838 15.4162 18.3 18.3C15.4162 21.1838 15.375 25.3312 15.3 28.9912C15.27 30.96 15.24 32.9925 14.73 34.2188C14.1787 35.5537 12.7162 37.08 11.3025 38.5575C8.81625 41.145 6 44.085 6 48C6 51.915 8.81625 54.8512 11.3025 57.4425C12.7162 58.92 14.1787 60.4425 14.73 61.7812C15.24 63.0075 15.27 65.04 15.3 67.0088C15.3562 70.6688 15.4162 74.8162 18.3 77.7C21.1838 80.5837 25.3312 80.6437 28.9912 80.7C30.96 80.73 32.9925 80.76 34.2188 81.27C35.5537 81.8213 37.08 83.2838 38.5575 84.6975C41.145 87.1838 44.085 90 48 90C51.915 90 54.8512 87.1838 57.4425 84.6975C58.92 83.2838 60.4425 81.8213 61.7812 81.27C63.0075 80.76 65.04 80.73 67.0088 80.7C70.6688 80.6437 74.8162 80.5837 77.7 77.7C80.5837 74.8162 80.6437 70.6688 80.7 67.0088C80.73 65.04 80.76 63.0075 81.27 61.7812C81.8213 60.4463 83.2838 58.92 84.6975 57.4425C87.1838 54.855 90 51.915 90 48C90 44.085 87.1838 41.1488 84.6975 38.5575ZM80.3662 53.2913C78.57 55.1663 76.71 57.105 75.7237 59.4863C74.7787 61.7738 74.7375 64.3875 74.7 66.9187C74.6625 69.5437 74.6213 72.2925 73.455 73.455C72.2887 74.6175 69.5588 74.6625 66.9187 74.7C64.3875 74.7375 61.7738 74.7787 59.4863 75.7237C57.105 76.71 55.1663 78.57 53.2913 80.3662C51.4163 82.1625 49.5 84 48 84C46.5 84 44.5687 82.155 42.7087 80.3662C40.8488 78.5775 38.895 76.71 36.5138 75.7237C34.2263 74.7787 31.6125 74.7375 29.0813 74.7C26.4563 74.6625 23.7075 74.6213 22.545 73.455C21.3825 72.2887 21.3375 69.5588 21.3 66.9187C21.2625 64.3875 21.2212 61.7738 20.2762 59.4863C19.29 57.105 17.43 55.1663 15.6337 53.2913C13.8375 51.4163 12 49.5 12 48C12 46.5 13.845 44.5687 15.6337 42.7087C17.4225 40.8488 19.29 38.895 20.2762 36.5138C21.2212 34.2263 21.2625 31.6125 21.3 29.0813C21.3375 26.4563 21.3787 23.7075 22.545 22.545C23.7113 21.3825 26.4413 21.3375 29.0813 21.3C31.6125 21.2625 34.2263 21.2212 36.5138 20.2762C38.895 19.29 40.8337 17.43 42.7087 15.6337C44.5837 13.8375 46.5 12 48 12C49.5 12 51.4313 13.845 53.2913 15.6337C55.1512 17.4225 57.105 19.29 59.4863 20.2762C61.7738 21.2212 64.3875 21.2625 66.9187 21.3C69.5437 21.3375 72.2925 21.3787 73.455 22.545C74.6175 23.7113 74.6625 26.4413 74.7 29.0813C74.7375 31.6125 74.7787 34.2263 75.7237 36.5138C76.71 38.895 78.57 40.8337 80.3662 42.7087C82.1625 44.5837 84 46.5 84 48C84 49.5 82.155 51.4313 80.3662 53.2913ZM65.1225 36.8775C65.4014 37.1561 65.6227 37.487 65.7737 37.8512C65.9247 38.2154 66.0024 38.6058 66.0024 39C66.0024 39.3942 65.9247 39.7846 65.7737 40.1488C65.6227 40.513 65.4014 40.8439 65.1225 41.1225L44.1225 62.1225C43.8439 62.4014 43.513 62.6227 43.1488 62.7737C42.7846 62.9247 42.3942 63.0024 42 63.0024C41.6058 63.0024 41.2154 62.9247 40.8512 62.7737C40.487 62.6227 40.1561 62.4014 39.8775 62.1225L30.8775 53.1225C30.3146 52.5596 29.9983 51.7961 29.9983 51C29.9983 50.2039 30.3146 49.4404 30.8775 48.8775C31.4404 48.3146 32.2039 47.9983 33 47.9983C33.7961 47.9983 34.5596 48.3146 35.1225 48.8775L42 55.7588L60.8775 36.8775C61.1561 36.5986 61.487 36.3773 61.8512 36.2263C62.2154 36.0753 62.6058 35.9976 63 35.9976C63.3942 35.9976 63.7846 36.0753 64.1488 36.2263C64.513 36.3773 64.8439 36.5986 65.1225 36.8775Z" fill="#206BA6"/>
</svg>
