<svg width="17" height="17" viewBox="0 0 17 17" fill="none" xmlns="http://www.w3.org/2000/svg">
<path d="M12.7498 0C14.9343 0 17 1.96496 17 4.04287V12.1276C17 14.2055 14.9343 16.1705 12.7498 16.1705H4.25024C2.06572 16.1705 0 14.2055 0 12.1276V4.04287C0 1.96496 2.06572 0 4.25024 0H12.7498ZM4.25024 2.02094C3.25679 2.02094 2.12463 3.0979 2.12463 4.04287V12.1276C2.12463 13.0908 3.23767 14.1495 4.25024 14.1495H12.7498C13.7432 14.1495 14.8754 13.0726 14.8754 12.1276V4.04287C14.8754 3.0979 13.7432 2.02094 12.7498 2.02094H4.25024Z" fill="#0A142F"/>
</svg>
