<svg width="96" height="96" viewBox="0 0 96 96" fill="none" xmlns="http://www.w3.org/2000/svg">
<path d="M78 15H18C16.4087 15 14.8826 15.6321 13.7574 16.7574C12.6321 17.8826 12 19.4087 12 21V42C12 61.77 21.57 73.7513 29.5988 80.3213C38.2463 87.3938 46.8488 89.7975 47.2238 89.895C47.7394 90.0353 48.2831 90.0353 48.7988 89.895C49.1738 89.7975 57.765 87.3938 66.4238 80.3213C74.43 73.7513 84 61.77 84 42V21C84 19.4087 83.3679 17.8826 82.2426 16.7574C81.1174 15.6321 79.5913 15 78 15ZM78 42C78 55.9012 72.8775 67.185 62.775 75.5325C58.3773 79.1539 53.3758 81.972 48 83.8575C42.6945 82.0049 37.7548 79.2368 33.405 75.6787C23.1825 67.3162 18 55.9875 18 42V21H78V42Z" fill="#206BA6"/>
</svg>
