<svg width="40" height="36" viewBox="0 0 40 36" fill="none" xmlns="http://www.w3.org/2000/svg">
<path opacity="0.2" d="M21.8944 1.89735L24.5824 0.486352L26.2803 2.83849L29.2707 2.07747L30.2674 4.73736L33.3757 4.6713L33.6083 7.47228L36.6369 8.10572L36.092 10.8707L38.8498 12.1661L37.5606 14.7209L39.8748 16.5957L37.9244 18.7813L39.6505 21.1154L37.1585 22.7936L38.1885 25.4445L35.3128 26.5103L35.5803 29.3082L32.5019 29.694L31.9919 32.4634L28.9035 32.1467L27.6459 34.715L24.7436 33.7138L22.8181 35.9189L20.2813 34.2963L17.8109 36L15.8008 33.858L12.9383 34.9522L11.581 32.4274L8.50757 32.8432L7.88626 30.0918L4.79457 29.8051L4.9524 27.0011L2.03679 26.0284L2.96048 23.3475L0.403717 21.7504L2.03679 19.3607L0 17.2397L2.23781 15.2928L0.85058 12.7801L3.55523 11.3961L2.90065 8.65213L5.90098 7.9196L6.02392 5.11414L9.13224 5.07809L10.0227 2.38819L13.043 3.05315L14.6461 0.646957L17.3873 1.96941L19.6018 0L21.8944 1.89735Z" fill="white"/>
</svg>
