<svg width="45" height="109" viewBox="0 0 45 109" fill="none" xmlns="http://www.w3.org/2000/svg">
<path d="M10.5841 108.037C10.5841 108.037 18.182 92.5516 9.06591 77.5093C-0.0502153 62.467 -2.68044 58.9312 2.95997 55.7477C8.60039 52.5656 11.4099 67.7655 11.4099 67.7655C11.4099 67.7655 16.0601 57.2191 11.9593 46.304C7.85854 35.3876 5.14114 17.5556 10.5167 15.5655C15.8923 13.5769 11.8442 37.8399 16.6391 46.0276C16.6391 46.0276 20.4537 36.7906 20.985 27.9712C21.5163 19.1518 20.3171 5.09634 24.5347 1.43125C28.7522 -2.23532 31.5174 0.224394 27.5844 19.724C23.6514 39.2236 23.8915 55.0283 23.8915 55.0283C23.8915 55.0283 32.8103 29.398 39.0149 28.5716C45.2179 27.7438 45.3198 36.0044 40.0972 43.2394C34.873 50.4745 24.7864 63.4479 23.1924 70.0736C23.1924 70.0736 33.0998 50.7435 42.3195 56.5027C51.5393 62.2619 34.595 74.0865 27.03 78.3773C19.465 82.6696 14.5221 109 14.5221 109L10.5841 108.037Z" fill="#EBEBEB"/>
</svg>
