<svg width="45" height="109" viewBox="0 0 45 109" fill="none" xmlns="http://www.w3.org/2000/svg">
<path d="M35.0532 107.854C35.0532 107.854 27.2477 92.4659 36.1656 77.2947C45.0852 62.1235 47.6705 58.5504 41.9847 55.4427C36.2989 52.335 33.6906 67.5791 33.6906 67.5791C33.6906 67.5791 28.8984 57.0917 32.8546 46.1167C36.8124 35.1416 39.2941 17.2657 33.8897 15.3476C28.4853 13.4294 32.8579 37.6486 28.1693 45.9026C28.1693 45.9026 24.2312 36.7133 23.5828 27.8973C22.9344 19.0827 23.9465 5.00594 19.6793 1.39418C15.412 -2.2161 12.6769 0.281937 16.8718 19.7355C21.0666 39.189 21.0353 55.0026 21.0353 55.0026C21.0353 55.0026 11.7718 29.4839 5.55612 28.7389C-0.661233 27.994 -0.653007 36.2583 4.6691 43.4268C9.99121 50.5953 20.2536 63.4365 21.9372 70.0429C21.9372 70.0429 11.7685 50.8392 2.62351 56.7245C-6.52315 62.6098 10.5853 74.2108 18.2097 78.401C25.8341 82.5927 31.1299 108.867 31.1299 108.867L35.0532 107.854Z" fill="#E0E0E0"/>
</svg>
