<svg width="50" height="50" viewBox="0 0 50 50" fill="none" xmlns="http://www.w3.org/2000/svg">
<path d="M32.1172 23.6992L22.7422 17.4492C22.5068 17.2922 22.2332 17.202 21.9506 17.1883C21.668 17.1746 21.387 17.2379 21.1375 17.3715C20.8881 17.505 20.6796 17.7038 20.5343 17.9466C20.389 18.1894 20.3123 18.4671 20.3125 18.75V31.25C20.3123 31.533 20.389 31.8106 20.5343 32.0534C20.6796 32.2962 20.8881 32.495 21.1375 32.6285C21.387 32.7621 21.668 32.8254 21.9506 32.8117C22.2332 32.798 22.5068 32.7078 22.7422 32.5508L32.1172 26.3008C32.3315 26.1582 32.5073 25.9648 32.6288 25.7378C32.7504 25.5109 32.814 25.2575 32.814 25C32.814 24.7426 32.7504 24.4891 32.6288 24.2622C32.5073 24.0352 32.3315 23.8419 32.1172 23.6992ZM23.4375 28.3301V21.6797L28.4336 25L23.4375 28.3301ZM45.7676 13.5781C45.5835 12.8581 45.2309 12.1922 44.7389 11.6352C44.2468 11.0783 43.6294 10.6463 42.9375 10.375C36.2422 7.78907 25.5859 7.81251 25 7.81251C24.4141 7.81251 13.7578 7.78907 7.0625 10.375C6.37063 10.6463 5.75319 11.0783 5.26112 11.6352C4.76905 12.1922 4.41646 12.8581 4.23242 13.5781C3.72656 15.5274 3.125 19.0899 3.125 25C3.125 30.9102 3.72656 34.4727 4.23242 36.4219C4.41618 37.1423 4.76865 37.8086 5.26074 38.3659C5.75282 38.9232 6.37041 39.3554 7.0625 39.627C13.4766 42.1016 23.5156 42.1875 24.8711 42.1875H25.1289C26.4844 42.1875 36.5293 42.1016 42.9375 39.627C43.6296 39.3554 44.2472 38.9232 44.7393 38.3659C45.2313 37.8086 45.5838 37.1423 45.7676 36.4219C46.2734 34.4688 46.875 30.9102 46.875 25C46.875 19.0899 46.2734 15.5274 45.7676 13.5781ZM42.7422 35.6484C42.6827 35.8881 42.5672 36.1102 42.4053 36.2966C42.2433 36.483 42.0395 36.6283 41.8105 36.7207C35.6289 39.1074 25.1152 39.0645 25.0137 39.0645H25C24.8945 39.0645 14.3887 39.1035 8.20312 36.7207C7.97416 36.6283 7.77035 36.483 7.60841 36.2966C7.44647 36.1102 7.33101 35.8881 7.27148 35.6484C6.79688 33.8652 6.25 30.5801 6.25 25C6.25 19.4199 6.79688 16.1348 7.25781 14.3613C7.31623 14.1203 7.43119 13.8966 7.5932 13.7088C7.7552 13.521 7.95959 13.3744 8.18945 13.2813C14.1504 10.9785 24.1387 10.9375 24.957 10.9375H25.0098C25.1152 10.9375 35.6309 10.9024 41.8066 13.2813C42.0356 13.3737 42.2394 13.519 42.4014 13.7054C42.5633 13.8918 42.6788 14.1139 42.7383 14.3535C43.2031 16.1348 43.75 19.4199 43.75 25C43.75 30.5801 43.2031 33.8652 42.7422 35.6387V35.6484Z" fill="white"/>
</svg>
